<?xml version="1.0" standalone="no"?>
<!DOCTYPE svg PUBLIC "-//W3C//DTD SVG 20010904//EN"
 "http://www.w3.org/TR/2001/REC-SVG-20010904/DTD/svg10.dtd">
<svg version="1.0" xmlns="http://www.w3.org/2000/svg"
 width="96.000000pt" height="96.000000pt" viewBox="0 0 96.000000 96.000000"
 preserveAspectRatio="xMidYMid meet">

<g transform="translate(0.000000,96.000000) scale(0.100000,-0.100000)"
fill="#000000" stroke="none">
<path d="M543 675 c-13 -9 -28 -34 -34 -56 -11 -35 -16 -40 -36 -34 -28 7 -31
-10 -4 -25 19 -9 19 -13 7 -58 -7 -26 -21 -82 -31 -125 -12 -56 -27 -91 -51
-122 -18 -24 -27 -42 -19 -39 40 16 90 136 110 264 9 58 20 70 64 71 34 2 34
2 6 6 -46 7 -50 17 -25 68 21 42 25 46 51 40 22 -5 29 -3 29 9 0 21 -38 21
-67 1z"/>
<path d="M225 554 c-20 -17 -24 -24 -11 -20 17 6 18 2 12 -53 -4 -36 -3 -62 3
-65 6 -4 31 14 57 39 26 25 51 45 56 45 25 0 -25 -201 -68 -267 -8 -13 -10
-23 -5 -23 12 0 43 75 85 209 40 128 44 156 20 147 -9 -3 -18 -6 -20 -6 -2 0
-4 -8 -4 -17 0 -16 -69 -83 -86 -83 -3 0 -4 27 0 60 4 33 3 60 -1 60 -4 0 -21
-12 -38 -26z"/>
<path d="M605 554 c-20 -17 -24 -24 -11 -20 17 6 18 2 12 -53 -4 -37 -3 -62 3
-66 6 -3 33 14 59 39 27 26 52 46 56 46 24 0 -29 -204 -70 -267 -8 -13 -11
-23 -6 -23 24 0 137 339 119 356 -8 8 -37 -15 -37 -29 0 -12 -70 -76 -82 -77
-11 0 -10 49 1 88 12 40 -2 42 -44 6z"/>
</g>
</svg>
