<?xml version="1.0" standalone="no"?>
<!DOCTYPE svg PUBLIC "-//W3C//DTD SVG 20010904//EN"
 "http://www.w3.org/TR/2001/REC-SVG-20010904/DTD/svg10.dtd">
<svg version="1.0" xmlns="http://www.w3.org/2000/svg"
 width="746.000000pt" height="746.000000pt" viewBox="0 0 746.000000 746.000000"
 preserveAspectRatio="xMidYMid meet">
<metadata>
Created by potrace 1.11, written by Peter Selinger 2001-2013
</metadata>
<g transform="translate(0.000000,746.000000) scale(0.100000,-0.100000)"
fill="#000000" stroke="none">
<path d="M0 6300 c0 -638 3 -1160 8 -1160 4 1 19 19 34 40 17 24 36 40 48 40
11 0 20 5 20 10 0 6 11 15 25 20 14 5 25 16 25 25 0 11 11 15 40 15 33 0 40 3
40 20 0 15 7 20 29 20 20 0 30 6 34 20 4 16 14 20 50 20 27 0 47 -5 50 -12 3
-8 20 4 45 31 38 42 41 43 93 40 39 -3 53 -1 51 9 -1 6 2 12 8 12 5 0 10 6 10
14 0 18 22 26 71 26 21 0 39 5 39 10 0 6 18 10 40 10 22 0 40 5 40 10 0 6 18
10 40 10 22 0 40 5 40 10 0 6 18 10 40 10 28 0 40 4 40 14 0 10 22 16 80 21
44 4 80 11 80 16 0 5 18 9 40 9 22 0 40 5 40 10 0 6 18 10 40 10 28 0 40 4 40
14 0 10 22 16 80 21 69 6 80 10 80 26 0 15 7 19 40 19 29 0 40 4 40 15 0 17
32 18 120 5 43 -6 57 -5 66 6 6 8 21 14 33 14 11 0 21 6 21 13 0 20 61 38 151
42 46 3 85 9 88 14 3 5 40 12 81 16 41 4 78 11 81 16 3 5 94 15 202 21 108 7
197 15 197 20 0 4 36 8 80 8 44 0 80 4 80 9 0 12 314 21 322 8 4 -6 16 -2 33
11 27 21 33 22 476 21 247 0 449 -4 449 -8 0 -4 80 -11 177 -14 229 -9 383
-26 383 -44 0 -9 17 -13 58 -13 98 0 342 -33 342 -46 0 -8 29 -14 80 -19 44
-4 80 -11 80 -15 0 -4 36 -11 80 -15 44 -4 80 -11 80 -16 0 -5 10 -9 21 -9 12
0 27 -8 34 -17 10 -13 25 -16 59 -14 36 2 46 -1 46 -13 0 -12 10 -16 40 -16
29 0 40 -4 40 -15 0 -12 16 -15 80 -15 64 0 80 -3 80 -15 0 -11 11 -15 40 -15
22 0 40 -4 40 -10 0 -5 18 -10 40 -10 22 0 40 -4 40 -10 0 -5 20 -10 45 -10
42 0 103 -28 113 -52 2 -5 21 -8 43 -8 21 0 39 -4 39 -10 0 -5 9 -10 21 -10
11 0 29 -10 40 -22 10 -13 18 -17 19 -10 0 7 15 12 40 12 33 0 40 -3 40 -20 0
-17 7 -20 40 -20 33 0 40 -3 40 -20 0 -16 7 -20 34 -20 42 0 68 -9 60 -21 -3
-5 2 -9 10 -9 9 0 16 -4 16 -9 0 -18 32 -41 56 -41 13 0 24 -4 24 -8 0 -16 50
-32 80 -25 25 5 36 0 60 -26 17 -17 30 -35 30 -41 0 -5 25 -10 55 -10 30 0 55
-4 55 -10 0 -13 57 -70 70 -70 5 0 10 -4 10 -10 0 -5 7 -10 15 -10 9 0 18 -8
22 -17 11 -31 36 -55 44 -42 9 16 44 -20 53 -55 8 -34 26 -34 27 2 l1 27 7
-25 c4 -15 22 -32 48 -44 35 -17 41 -24 37 -43 -4 -14 -2 -23 6 -23 6 0 18 -6
26 -14 7 -8 19 -16 26 -19 10 -3 8 -10 -6 -26 -19 -21 -19 -21 7 -21 14 0 38
-7 54 -14 15 -8 36 -17 46 -21 11 -3 21 -13 24 -23 2 -9 22 -30 44 -45 21 -16
39 -34 39 -42 0 -7 9 -17 20 -20 13 -4 20 -15 20 -31 0 -13 5 -24 10 -24 7 0
10 483 10 1430 l0 1430 -3730 0 -3730 0 0 -1160z m2063 -457 c-13 -2 -33 -2
-45 0 -13 2 -3 4 22 4 25 0 35 -2 23 -4z"/>
<path d="M848 5110 c-32 -5 -91 -26 -133 -47 -90 -44 -145 -108 -145 -168 0
-19 5 -35 10 -35 14 0 60 -46 60 -60 0 -5 -6 -10 -12 -10 -7 0 -25 -6 -39 -14
-14 -7 -43 -16 -65 -20 -40 -8 -61 -16 -154 -60 -74 -36 -130 -69 -130 -78 0
-5 -8 -16 -17 -26 -57 -58 -73 -87 -73 -128 0 -65 30 -87 84 -63 27 13 80 4
71 -11 -3 -6 -2 -10 4 -10 5 0 11 3 13 8 4 9 159 58 213 68 l40 7 -27 -26
c-15 -14 -48 -36 -74 -48 -59 -30 -156 -114 -171 -149 -6 -15 -15 -30 -20 -33
-16 -10 -15 -97 1 -122 13 -20 24 -23 80 -24 45 0 68 4 76 14 7 8 17 15 22 15
16 0 108 48 165 86 56 37 79 41 126 21 61 -26 100 -36 111 -30 5 4 28 10 51
14 22 4 72 17 110 29 55 17 87 20 150 17 81 -5 177 -26 240 -53 19 -8 45 -14
59 -14 13 0 31 -6 38 -12 34 -33 89 -45 244 -54 69 -4 84 -2 104 14 31 25 29
79 -6 177 -25 71 -25 74 -8 100 16 25 21 27 83 24 107 -5 148 7 176 51 21 33
51 57 124 97 15 8 59 13 120 13 79 0 111 -5 181 -29 47 -16 114 -32 150 -35
65 -7 132 -29 161 -53 24 -20 137 -53 182 -53 35 0 45 -6 93 -57 30 -31 60
-58 67 -59 75 -12 163 -38 212 -64 54 -28 67 -31 140 -29 44 1 96 -3 115 -9
19 -6 75 -18 123 -27 102 -17 217 -64 231 -94 35 -79 -81 -127 -200 -82 -28
11 -93 29 -145 40 -52 12 -113 26 -137 31 -23 6 -75 10 -115 10 -123 0 -222
41 -296 123 -30 33 -131 134 -131 130 0 -1 -15 6 -32 17 -45 27 -93 26 -112
-2 -21 -30 -20 -51 4 -98 23 -46 26 -86 6 -93 -8 -3 -40 0 -72 8 -47 11 -64
21 -87 49 -16 20 -33 36 -38 36 -15 0 -101 60 -210 148 -36 28 -48 32 -99 32
-50 0 -63 -4 -85 -25 -32 -33 -32 -75 0 -139 49 -96 36 -128 -96 -256 -98 -94
-218 -138 -293 -106 -61 26 -153 31 -225 12 -78 -20 -98 -20 -157 0 -68 23
-111 21 -134 -7 -44 -50 -18 -93 85 -137 108 -46 146 -55 177 -43 23 9 31 7
47 -11 27 -28 146 -42 356 -42 152 0 251 11 292 32 34 18 68 31 131 52 84 27
143 49 166 62 56 30 315 50 666 50 215 1 267 -3 400 -30 89 -18 136 -59 93
-80 -10 -5 -157 -7 -328 -5 -336 3 -345 2 -430 -52 -60 -39 -90 -44 -305 -54
-130 -6 -176 -12 -216 -28 -28 -11 -89 -23 -140 -27 -49 -4 -113 -14 -142 -22
-40 -12 -76 -14 -147 -9 -73 6 -109 3 -169 -11 -74 -17 -79 -17 -131 1 -30 10
-55 21 -55 24 0 12 -76 40 -124 45 -27 3 -54 10 -60 15 -12 9 -58 18 -149 27
-31 4 -60 10 -63 15 -3 5 -20 9 -37 9 -18 0 -57 7 -87 15 -30 8 -73 15 -94 15
-22 0 -58 8 -80 19 -23 10 -63 28 -91 41 -27 12 -80 42 -116 66 -37 24 -74 44
-82 44 -9 0 -40 14 -69 32 -49 30 -61 33 -155 36 -89 3 -109 1 -146 -17 -85
-41 -107 -91 -83 -187 7 -26 3 -37 -28 -75 -19 -24 -44 -60 -55 -81 -20 -36
-20 -36 -1 -61 27 -34 63 -38 132 -15 53 18 65 19 102 8 22 -7 61 -14 86 -17
63 -6 292 -63 308 -75 19 -16 15 -32 -18 -69 -24 -28 -30 -43 -30 -82 0 -52 8
-65 57 -91 17 -8 40 -27 51 -40 11 -14 22 -22 26 -19 3 3 6 -1 6 -10 0 -9 5
-17 10 -17 6 0 24 -15 40 -33 39 -45 97 -57 220 -47 78 6 109 14 170 43 109
51 164 55 170 12 4 -34 15 -57 30 -65 10 -6 83 -9 162 -8 150 3 203 -7 286
-54 18 -10 38 -18 44 -18 7 0 33 -20 58 -45 123 -121 203 -195 280 -261 47
-40 100 -86 119 -103 19 -17 42 -31 52 -31 11 0 19 -4 19 -9 0 -11 199 -111
221 -111 8 0 20 -5 25 -10 6 -6 39 -19 75 -29 35 -10 83 -28 106 -40 23 -11
49 -21 58 -21 8 0 15 -4 15 -8 0 -5 37 -15 82 -22 50 -9 94 -23 115 -37 67
-45 133 -21 133 49 0 48 -24 84 -111 168 -31 30 -59 65 -63 77 -10 30 24 47
78 39 22 -3 68 -9 101 -12 33 -4 67 -12 75 -19 28 -23 524 -45 593 -26 29 8
50 9 68 3 30 -12 267 5 286 20 6 5 51 11 98 13 48 3 93 9 100 15 7 6 30 12 51
14 43 5 51 7 144 43 113 44 145 57 150 64 3 3 25 19 50 34 25 15 68 50 95 76
51 50 96 64 122 38 16 -16 113 -39 166 -39 26 0 47 -4 47 -9 0 -5 28 -14 61
-20 77 -13 102 -33 87 -67 -6 -13 -19 -24 -28 -24 -9 0 -20 -4 -25 -9 -6 -5
-56 -11 -112 -13 l-102 -3 -35 -36 c-46 -47 -102 -59 -271 -59 -109 0 -139 -3
-164 -17 -73 -42 -73 -141 1 -165 6 -2 14 -30 19 -61 14 -105 76 -154 137
-111 13 9 26 14 29 10 3 -3 12 2 21 10 11 12 24 14 46 8 63 -16 200 -1 321 35
17 5 49 12 72 16 24 4 45 11 49 16 3 5 17 9 32 9 35 0 121 33 132 50 5 7 20
18 34 24 13 6 43 28 65 49 35 32 46 37 83 36 52 -2 114 28 150 74 77 95 68 90
154 85 58 -4 95 -13 139 -34 51 -24 73 -28 145 -28 69 0 94 4 128 22 23 12 53
22 67 22 26 0 144 47 160 64 6 6 31 22 58 36 26 13 50 33 53 42 3 10 12 18 20
18 8 0 14 6 14 14 0 7 6 19 14 25 7 6 19 37 25 69 16 72 -1 135 -37 140 -12 2
-22 9 -22 17 0 7 -8 16 -17 18 -11 4 -9 5 7 5 52 -2 65 3 77 29 26 55 9 87
-73 139 -30 19 -54 39 -54 44 0 13 43 13 55 1 19 -18 147 -29 213 -18 34 6 62
14 62 18 0 4 22 12 50 19 27 6 54 18 61 26 6 7 16 11 21 7 6 -3 9 0 6 7 -2 8
3 21 11 30 40 41 61 71 61 85 0 8 5 15 10 15 6 0 10 23 10 50 0 28 -4 50 -8
50 -5 0 -14 10 -21 23 -32 59 -103 69 -159 23 -15 -13 -53 -36 -84 -51 -32
-16 -58 -31 -58 -35 0 -10 -82 -30 -123 -30 -44 0 -97 18 -123 42 -34 30 -109
48 -204 48 -86 0 -110 8 -110 38 0 31 -34 83 -73 112 -32 24 -37 31 -23 36 9
3 29 2 44 -4 15 -6 61 -18 102 -27 41 -10 80 -20 85 -24 27 -16 85 -31 126
-31 38 0 50 4 62 24 37 56 33 76 -33 159 -34 43 -138 76 -355 112 -55 9 -115
21 -133 27 -21 6 -72 7 -130 3 -116 -8 -208 8 -307 54 -37 17 -72 31 -78 32
-7 0 -25 9 -42 20 -16 10 -37 21 -45 25 -8 3 -22 10 -30 15 -8 5 -31 16 -50
25 -19 8 -51 24 -71 34 -50 27 -90 26 -118 -4 -20 -22 -23 -31 -16 -72 3 -25
9 -52 11 -59 3 -7 -3 -20 -12 -29 -21 -22 -59 -14 -95 20 -14 13 -30 24 -37
24 -7 0 -12 5 -12 10 0 6 -6 10 -14 10 -7 0 -21 11 -30 25 -9 14 -21 25 -27
25 -6 0 -37 20 -70 45 -78 60 -115 75 -193 75 -49 0 -80 -7 -123 -26 -40 -17
-69 -24 -93 -21 -45 7 -178 54 -210 76 -32 22 -97 51 -113 51 -7 0 -37 13 -67
30 -30 16 -61 29 -68 30 -8 0 -28 6 -45 14 -87 38 -181 67 -266 81 -102 17
-296 80 -351 114 -19 11 -42 21 -51 21 -9 0 -38 9 -65 19 -27 11 -76 27 -109
36 -107 31 -216 68 -221 77 -3 4 -18 8 -34 8 -16 0 -69 14 -117 31 -119 41
-211 66 -315 84 -77 14 -91 14 -130 0 -72 -25 -136 -20 -214 19 -76 37 -111
50 -193 72 -30 8 -60 19 -65 23 -15 12 -80 31 -141 42 -27 5 -97 18 -155 29
-58 11 -159 27 -224 36 -66 8 -123 17 -126 19 -7 4 -186 12 -455 19 -82 2
-176 0 -207 -4z m3877 -1400 c6 -4 23 -10 39 -14 16 -4 48 -16 70 -27 22 -10
48 -19 59 -19 38 0 133 -33 160 -56 48 -40 153 -57 199 -33 34 18 108 12 181
-15 78 -29 94 -39 131 -82 17 -21 26 -44 26 -65 0 -34 17 -91 35 -119 6 -8 28
-29 50 -45 68 -50 75 -59 75 -85 0 -25 -33 -89 -54 -102 -6 -4 -34 -8 -63 -8
-45 0 -58 5 -89 32 -41 36 -68 91 -78 161 -4 26 -11 47 -17 47 -5 0 -9 6 -9
13 -1 30 -53 51 -145 58 -89 6 -160 22 -179 40 -6 5 -17 9 -26 9 -8 0 -23 9
-32 19 -9 11 -36 25 -60 32 -74 21 -259 99 -340 142 -90 49 -112 83 -78 117
17 17 29 19 78 14 31 -4 62 -10 67 -14z m-770 -198 c91 -20 104 -37 60 -84
-14 -15 -25 -32 -25 -38 0 -5 -7 -10 -16 -10 -8 0 -38 -10 -65 -21 l-49 -21
-49 33 c-54 37 -81 74 -81 112 0 46 88 57 225 29z m-1014 -96 c26 -24 49 -56
53 -71 4 -15 11 -32 17 -38 12 -13 50 -76 75 -124 9 -17 28 -37 41 -44 13 -7
29 -24 36 -38 18 -37 62 -55 137 -53 38 0 79 -6 100 -15 19 -8 60 -25 90 -39
30 -13 73 -26 95 -30 22 -4 54 -15 70 -24 18 -11 61 -21 110 -25 86 -7 132 -1
385 50 65 13 170 47 202 65 10 6 25 10 34 10 19 0 141 119 161 156 7 15 13 33
13 41 0 7 11 25 25 39 21 21 31 24 62 18 40 -7 99 -40 122 -68 7 -9 19 -16 26
-16 19 0 75 -30 75 -41 0 -5 5 -9 10 -9 22 0 59 -32 53 -46 -7 -19 -54 -43
-92 -48 -49 -5 -113 -43 -180 -105 -35 -33 -78 -66 -95 -74 -17 -8 -51 -25
-76 -37 -71 -35 -127 -49 -240 -60 -58 -6 -141 -14 -185 -19 -96 -11 -430 -5
-535 10 -41 6 -104 15 -140 20 -113 16 -134 19 -185 34 -27 7 -68 18 -90 24
-136 33 -204 58 -284 103 -50 28 -91 57 -91 64 0 8 -5 14 -11 14 -6 0 -34 22
-62 49 -131 124 -161 141 -248 141 -26 0 -54 3 -63 6 -17 6 -21 41 -8 59 7 10
70 28 145 40 22 3 64 19 95 35 32 16 74 32 95 35 20 4 37 11 37 16 0 5 8 9 18
9 9 0 28 7 42 14 14 8 45 14 70 15 41 1 50 -4 91 -43z m3545 -174 c6 -4 14
-17 18 -29 8 -24 102 -108 156 -137 35 -19 42 -23 91 -46 14 -6 50 -15 80 -19
l54 -7 -50 -9 c-130 -23 -272 4 -329 64 -41 43 -75 191 -43 191 6 0 17 -4 23
-8z"/>
<path d="M7101 4921 c-10 -6 -10 -10 -1 -16 13 -8 24 -1 19 14 -3 6 -10 7 -18
2z"/>
<path d="M755 4133 c-68 -15 -113 -36 -118 -54 -10 -37 4 -89 24 -89 10 0 22
-6 26 -14 4 -7 29 -21 54 -29 25 -9 79 -39 120 -67 117 -81 152 -95 241 -95
42 0 80 4 85 8 4 5 8 28 8 52 0 40 -5 48 -60 100 -99 93 -216 165 -267 165
-13 0 -29 5 -34 10 -13 13 -51 19 -79 13z"/>
<path d="M7415 2970 c3 -5 10 -10 16 -10 5 0 9 5 9 10 0 6 -7 10 -16 10 -8 0
-12 -4 -9 -10z"/>
<path d="M7386 2890 c-14 -22 -33 -40 -41 -40 -8 0 -25 -16 -37 -35 -13 -18
-33 -38 -45 -44 -11 -5 -29 -24 -39 -40 -10 -17 -26 -34 -36 -37 -10 -3 -26
-16 -37 -30 -22 -28 -31 -30 -31 -7 0 26 -17 5 -51 -63 -25 -50 -29 -55 -29
-31 0 37 -24 31 -28 -8 -5 -38 -32 -77 -49 -71 -17 7 -73 -20 -73 -34 0 -6
-18 -10 -40 -10 -27 0 -47 -7 -66 -24 -51 -45 -64 -56 -70 -55 -10 3 -43 -24
-39 -32 9 -13 -56 -31 -95 -26 -36 5 -42 2 -61 -24 -11 -16 -17 -29 -12 -29
24 -1 -27 -20 -52 -20 -19 0 -36 -8 -45 -20 -10 -14 -26 -20 -53 -20 -23 0
-40 -5 -43 -14 -8 -20 -58 -36 -111 -36 -31 0 -43 -4 -40 -12 3 -9 -20 -16
-77 -23 -75 -9 -81 -12 -80 -32 0 -20 -4 -23 -42 -23 -23 0 -44 -3 -46 -7 -8
-19 -73 -43 -114 -43 -32 0 -44 -4 -44 -15 0 -11 -11 -15 -40 -15 -29 0 -40
-4 -40 -15 0 -12 -16 -15 -80 -15 -79 0 -80 0 -80 -25 0 -25 -1 -25 -80 -25
-64 0 -80 -3 -80 -15 0 -12 -16 -15 -80 -15 -77 0 -80 -1 -80 -23 0 -22 -5
-24 -142 -40 -79 -9 -168 -17 -200 -17 -31 0 -58 -4 -60 -10 -1 -5 -57 -14
-123 -19 -66 -4 -101 -9 -77 -10 23 0 42 -5 42 -9 0 -15 -203 -32 -382 -32
-98 0 -178 -4 -178 -9 0 -11 -226 -21 -627 -26 -214 -3 -333 -1 -333 5 0 6
-34 10 -80 10 -47 0 -80 4 -80 10 0 6 -59 10 -158 10 -88 0 -214 3 -280 7
-105 5 -122 8 -122 23 0 15 -16 18 -117 23 -66 4 -119 11 -121 17 -2 6 -50 10
-123 10 -65 0 -119 4 -119 9 0 4 -54 14 -120 21 -88 9 -120 17 -120 26 0 10
-13 14 -40 14 -33 0 -40 3 -40 20 0 17 -7 20 -40 20 -22 0 -40 -4 -40 -10 0
-18 -21 -10 -47 18 -17 18 -27 23 -30 15 -3 -8 -22 -13 -44 -13 -33 0 -39 3
-39 21 0 20 -4 21 -52 17 -39 -4 -59 -1 -82 13 -21 13 -50 19 -87 19 -50 0
-57 3 -77 30 -19 25 -30 30 -62 30 -22 0 -40 5 -40 10 0 6 -18 10 -40 10 -22
0 -40 5 -40 10 0 6 -21 10 -48 10 -39 0 -51 4 -66 25 -10 14 -25 25 -32 25 -8
0 -14 5 -14 10 0 6 -18 10 -40 10 -24 0 -40 -5 -40 -12 0 -6 -7 -4 -18 5 -10
10 -30 17 -44 17 -18 0 -32 11 -52 40 -25 39 -28 40 -81 40 -48 0 -58 4 -82
30 -14 17 -34 30 -44 30 -9 0 -19 5 -21 12 -2 6 -20 11 -39 10 -29 -1 -40 5
-58 29 -12 16 -28 28 -35 27 -8 -2 -28 12 -45 30 -35 36 -41 39 -41 17 0 -26
-17 -16 -34 20 -9 19 -23 35 -31 35 -13 0 -15 -162 -15 -1235 l0 -1235 3730 0
3730 0 0 1465 0 1465 -24 0 c-16 0 -31 -12 -50 -40z"/>
<path d="M7336 2901 c-3 -5 1 -14 9 -21 13 -10 15 -9 15 9 0 21 -14 28 -24 12z"/>
<path d="M1976 2778 c-24 -38 -29 -76 -16 -126 21 -76 59 -162 86 -190 13 -15
24 -31 24 -37 0 -11 164 -181 231 -238 24 -21 56 -41 71 -44 16 -3 28 -11 28
-19 0 -7 16 -16 38 -20 20 -3 47 -13 59 -20 13 -8 50 -17 83 -21 33 -3 60 -9
60 -13 0 -20 144 -70 175 -60 6 1 37 5 71 7 55 4 68 0 144 -36 80 -39 85 -40
109 -25 14 9 32 23 39 32 17 22 16 91 -2 98 -8 3 -17 16 -20 30 -4 13 -19 31
-34 41 -15 9 -36 24 -47 34 -18 15 -58 29 -171 58 -23 6 -62 11 -88 11 -32 0
-58 8 -86 25 -22 14 -46 25 -55 25 -8 0 -15 5 -15 10 0 6 -8 10 -18 10 -9 0
-33 10 -52 23 -19 13 -60 36 -91 52 -31 15 -73 43 -95 61 -21 19 -42 34 -46
34 -14 0 -198 192 -198 207 0 8 -23 37 -52 64 -61 57 -106 66 -132 27z"/>
<path d="M7186 2741 c-4 -7 -5 -15 -2 -18 9 -9 19 4 14 18 -4 11 -6 11 -12 0z"/>
</g>
</svg>
